<?xml version="1.0" standalone="no"?>
<!DOCTYPE svg PUBLIC "-//W3C//DTD SVG 20010904//EN"
 "http://www.w3.org/TR/2001/REC-SVG-20010904/DTD/svg10.dtd">
<svg version="1.0" xmlns="http://www.w3.org/2000/svg"
 width="500.000000pt" height="500.000000pt" viewBox="0 0 500.000000 500.000000"
 preserveAspectRatio="xMidYMid meet">

<g transform="translate(0.000000,500.000000) scale(0.100000,-0.100000)"
fill="#000000" stroke="none">
<path d="M2920 4134 c-36 -14 -81 -32 -100 -39 -29 -11 -1063 -615 -1210 -706
-25 -16 -65 -39 -90 -53 -69 -37 -166 -148 -217 -246 -28 -54 -28 -58 -28
-225 1 -192 12 -262 57 -347 41 -78 183 -214 279 -267 41 -23 84 -49 96 -59
l23 -17 -81 -55 c-161 -110 -232 -172 -264 -231 -16 -31 -35 -63 -40 -70 -19
-24 -53 -122 -65 -183 -13 -63 -8 -157 14 -297 11 -68 18 -85 66 -150 73 -101
103 -132 188 -195 122 -92 174 -106 412 -111 l175 -5 55 30 c219 117 767 418
880 484 52 30 140 80 195 112 55 31 119 71 142 89 23 18 68 50 100 72 76 53
159 136 166 166 3 13 20 71 37 129 29 96 31 113 26 200 -9 144 -45 244 -130
360 -68 92 -158 181 -240 235 -31 20 -56 40 -56 44 0 12 110 114 172 159 58
42 139 132 183 202 13 21 35 73 50 116 36 111 34 233 -5 359 -44 143 -59 169
-172 311 -88 110 -286 196 -488 210 -54 3 -76 0 -130 -22z m350 -241 c46 -38
100 -81 121 -98 21 -16 39 -34 39 -40 0 -5 14 -26 30 -45 17 -19 30 -38 30
-43 0 -9 35 -91 51 -120 5 -9 11 -53 14 -96 4 -83 6 -78 -61 -197 -39 -69 -65
-98 -159 -174 -44 -36 -96 -80 -115 -98 -19 -18 -65 -56 -102 -83 -42 -33 -71
-62 -77 -82 -11 -30 -9 -33 61 -101 40 -39 93 -84 118 -101 81 -55 227 -213
259 -280 77 -162 90 -266 44 -344 -61 -106 -120 -170 -203 -225 -97 -63 -176
-120 -183 -132 -4 -8 -15 -14 -23 -14 -8 0 -44 -20 -79 -44 -36 -24 -96 -56
-134 -71 -38 -14 -75 -33 -81 -41 -7 -8 -16 -14 -21 -14 -5 0 -26 -10 -47 -23
-39 -24 -224 -107 -239 -107 -4 0 -21 -11 -38 -25 -36 -30 -134 -78 -227 -111
-37 -14 -100 -44 -140 -67 -62 -36 -83 -42 -142 -46 -66 -3 -159 11 -201 32
-60 30 -158 102 -189 140 -42 52 -103 178 -111 233 -4 24 2 80 14 144 26 129
47 162 164 250 81 62 136 109 264 226 50 45 55 54 49 79 -7 27 -101 135 -118
135 -15 0 -192 132 -246 184 -155 149 -177 394 -51 562 42 55 221 204 245 204
7 0 108 64 201 127 34 23 108 65 165 93 181 90 309 158 326 173 10 9 44 27 77
42 33 14 71 37 85 50 28 26 95 65 113 65 7 1 30 14 52 30 96 70 224 118 317
119 l66 1 82 -67z"/>
<path d="M2193 2924 c-3 -9 -2 -170 3 -358 5 -187 8 -383 6 -434 -3 -94 -3
-94 20 -87 13 4 50 24 83 44 105 63 119 71 164 92 24 12 105 57 180 102 75 44
165 96 201 115 36 19 84 47 108 62 40 25 42 27 25 42 -19 16 -82 54 -164 98
-25 14 -77 42 -115 63 -38 21 -92 51 -120 66 -28 15 -64 36 -80 47 -16 11 -40
25 -54 32 -14 7 -47 26 -75 44 -51 32 -159 88 -170 88 -3 0 -8 -7 -12 -16z"/>
</g>
</svg>
